<svg version="1.1" xmlns="http://www.w3.org/2000/svg" xmlns:xlink="http://www.w3.org/1999/xlink" width="96" height="113.581" viewBox="0,0,96,113.581"><g transform="translate(-194,-110.5)"><g data-paper-data="{&quot;isPaintingLayer&quot;:true}" fill-rule="nonzero" stroke-linecap="butt" stroke-linejoin="miter" stroke-miterlimit="10" stroke-dasharray="" stroke-dashoffset="0" style="mix-blend-mode: normal"><path d="M289,162c0,4.39813 -20.16635,15.80399 -21.99116,23.65089c-2.18204,9.38304 0.69442,22.39669 -2.50223,28.6525c-7.05429,13.80515 -22.35308,7.19662 -33.50661,7.19662c-7.8248,0 1.73586,-14.68085 -7.56934,-23.12357c-7.24134,-6.57016 -24.37343,-4.41851 -19.85934,-15.11195c3.54989,-8.40935 -8.57132,-15.47968 -8.57132,-22.26448c0,-12.53098 21.75342,-1.66371 30.66152,-8.69406c6.20744,-4.89897 6.94671,-40.80594 15.33848,-40.80594c11.15669,0 15.16007,33.13812 21.94384,41.26429c5.64134,6.75768 26.05616,-0.41826 26.05616,9.23571z" fill="#9966ff" stroke="#000000" stroke-width="2"/><path d="M234.5,164.8c0,1.933 -1.567,3.5 -3.5,3.5c-1.933,0 -3.5,-1.567 -3.5,-3.5c0,-1.933 1.567,-3.5 3.5,-3.5c1.933,0 3.5,1.567 3.5,3.5z" fill="#ffffff" stroke="#000000" stroke-width="2"/><path d="M260.5,165.8c0,1.933 -1.34315,3.5 -3,3.5c-1.65685,0 -3,-1.567 -3,-3.5c0,-1.933 1.34315,-3.5 3,-3.5c1.65685,0 3,1.567 3,3.5z" fill="#ffffff" stroke="#000000" stroke-width="2"/><path d="M253.5,182.8c2.5,0 2.5,2.5 2.5,2.5l-0.12829,1.79057c-1.68967,5.06901 -3.22336,14.80915 -10.94609,13.64255c-1.28974,-0.19483 -1.96641,-1.71805 -3.01059,-2.49977c-2.1894,-1.63907 -4.00806,-2.1859 -5.54165,-4.61903c-0.93456,-1.48273 -1.3656,-3.34453 -2.64114,-4.54656c0,0 -1.76777,-1.76777 0,-3.53553c1.76777,-1.76777 3.53553,0 3.53553,0c0.78629,0.81781 1.76391,1.48747 2.35886,2.45344c0.55279,0.89751 0.48417,2.08075 1,3c0.64073,1.14183 3.9357,2.92241 4.45835,3.38097c0.45029,0.39508 0.43019,1.28548 0.98941,1.50023c0.42633,0.16372 2.28988,-1.86402 2.29899,-1.88121c1.29583,-2.44404 1.87775,-5.84474 2.75492,-8.47624l-0.12829,-0.20943c0,0 0,-2.5 2.5,-2.5z" fill="#ffffff" stroke="none" stroke-width="0.5"/><path d="M278,132.3c0,-1.38071 1.11929,-2.5 2.5,-2.5c1.38071,0 2.5,1.11929 2.5,2.5c0,1.38071 -1.11929,2.5 -2.5,2.5c-1.38071,0 -2.5,-1.11929 -2.5,-2.5z" fill="#ffffff" stroke="none" stroke-width="0.5"/></g></g></svg>